<?xml version="1.0" standalone="no"?>
<!DOCTYPE svg PUBLIC "-//W3C//DTD SVG 20010904//EN"
 "http://www.w3.org/TR/2001/REC-SVG-20010904/DTD/svg10.dtd">
<svg version="1.0" xmlns="http://www.w3.org/2000/svg"
 width="64.000000pt" height="64.000000pt" viewBox="0 0 64.000000 64.000000"
 preserveAspectRatio="xMidYMid meet">
<metadata>
Created by potrace 1.10, written by Peter Selinger 2001-2011
</metadata>
<g transform="translate(0.000000,64.000000) scale(0.100000,-0.100000)"
fill="#000000" stroke="none">
<path d="M250 571 c-46 -15 -85 -39 -116 -73 -54 -57 -69 -95 -69 -178 0 -54
6 -85 19 -110 25 -49 74 -98 119 -121 l37 -19 0 29 c0 25 -4 30 -27 33 -21 2
-33 13 -50 46 -19 36 -20 41 -5 33 9 -5 25 -19 34 -30 23 -27 34 -26 54 4 19
29 20 27 -24 49 -19 10 -39 31 -47 49 -13 32 -10 83 6 93 5 3 9 25 9 50 0 39
2 44 23 44 13 0 28 -5 34 -11 15 -15 131 -15 146 0 6 6 21 11 34 11 21 0 23
-5 23 -44 0 -25 4 -47 9 -50 16 -10 19 -61 6 -93 -9 -21 -27 -39 -50 -50 -26
-12 -34 -21 -28 -32 4 -9 9 -42 11 -73 l4 -58 36 19 c44 23 93 73 118 121 26
49 26 171 0 220 -26 49 -74 98 -121 122 -43 22 -144 33 -185 19z"/>
</g>
</svg>
