<?xml version="1.0" standalone="no"?>
<!DOCTYPE svg PUBLIC "-//W3C//DTD SVG 20010904//EN"
 "http://www.w3.org/TR/2001/REC-SVG-20010904/DTD/svg10.dtd">
<svg version="1.0" xmlns="http://www.w3.org/2000/svg"
 width="150.000000pt" height="150.000000pt" viewBox="0 0 150.000000 150.000000"
 preserveAspectRatio="xMidYMid meet">
<metadata>
Created by potrace 1.10, written by Peter Selinger 2001-2011
</metadata>
<g transform="translate(0.000000,150.000000) scale(0.100000,-0.100000)"
fill="#000000" stroke="none">
<path d="M182 1347 c-18 -12 -41 -37 -52 -55 -19 -31 -20 -53 -20 -552 0 -517
0 -520 22 -553 12 -19 36 -43 55 -55 33 -22 36 -22 553 -22 517 0 520 0 553
22 19 12 43 36 55 55 22 33 22 36 22 553 0 517 0 520 -22 553 -12 19 -36 43
-55 55 -33 22 -35 22 -555 21 -521 0 -523 0 -556 -22z m290 -244 c35 -34 36
-65 1 -98 -38 -34 -88 -34 -125 2 -35 34 -36 65 -1 98 38 34 88 34 125 -2z
m23 -498 l0 -280 -85 0 -85 0 -3 270 c-1 148 0 276 3 283 3 9 26 12 87 10 l83
-3 0 -280z m273 253 c3 -27 25 -38 36 -19 15 23 90 51 137 51 93 0 169 -56
202 -148 15 -40 17 -79 15 -232 l-3 -185 -85 0 -85 0 -3 172 -2 172 -34 36
c-28 29 -40 35 -74 35 -35 0 -45 -5 -69 -35 -28 -35 -28 -37 -33 -207 l-5
-173 -85 0 -85 0 -3 270 c-1 148 0 276 3 283 3 9 26 12 87 10 82 -3 83 -3 86
-30z"/>
</g>
</svg>
